<?xml version="1.0" encoding="UTF-8" standalone="no"?>
<!-- Created with Inkscape (http://www.inkscape.org/) -->

<svg
   xmlns:dc="http://purl.org/dc/elements/1.1/"
   xmlns:cc="http://creativecommons.org/ns#"
   xmlns:rdf="http://www.w3.org/1999/02/22-rdf-syntax-ns#"
   xmlns:svg="http://www.w3.org/2000/svg"
   xmlns="http://www.w3.org/2000/svg"
   xmlns:sodipodi="http://sodipodi.sourceforge.net/DTD/sodipodi-0.dtd"
   xmlns:inkscape="http://www.inkscape.org/namespaces/inkscape"
   width="32px"
   height="32px"
   id="svg3013"
   version="1.1"
   inkscape:version="0.48.4 r9939"
   sodipodi:docname="linux64.svg">
  <defs
     id="defs3015" />
  <sodipodi:namedview
     id="base"
     pagecolor="#ffffff"
     bordercolor="#666666"
     borderopacity="1.0"
     inkscape:pageopacity="0.0"
     inkscape:pageshadow="2"
     inkscape:zoom="11.197802"
     inkscape:cx="16.85119"
     inkscape:cy="15.219288"
     inkscape:current-layer="layer1"
     showgrid="true"
     inkscape:grid-bbox="true"
     inkscape:document-units="px"
     inkscape:window-width="1280"
     inkscape:window-height="881"
     inkscape:window-x="-3"
     inkscape:window-y="-6"
     inkscape:window-maximized="1" />
  <metadata
     id="metadata3018">
    <rdf:RDF>
      <cc:Work
         rdf:about="">
        <dc:format>image/svg+xml</dc:format>
        <dc:type
           rdf:resource="http://purl.org/dc/dcmitype/StillImage" />
        <dc:title />
      </cc:Work>
    </rdf:RDF>
  </metadata>
  <g
     id="layer1"
     inkscape:label="Layer 1"
     inkscape:groupmode="layer">
    <path
       style="fill-rule:evenodd"
       inkscape:connector-curvature="0"
       clip-rule="evenodd"
       d="m 12.131384,26.856443 c 1.083275,-0.111659 1.226214,-1.258417 0.715851,-1.758818 C 12.42699,24.685488 10.10777,22.963737 9.5026553,22.286806 9.2218742,21.972897 8.8410136,21.818607 8.6797726,21.465546 8.3088735,20.65332 8.0489432,19.494057 8.5196909,18.661445 c 0.085015,-0.15012 0.1399204,-0.0827 0.0746,0.23074 -0.3695101,1.775961 0.786974,3.226663 1.041575,2.482778 0.175836,-0.514068 0.01301,-1.433557 0.106797,-2.163771 0.166337,-1.29224 1.3427431,-3.77386 1.8593621,-3.915639 -0.796936,-1.476185 0.934546,-2.631509 0.913464,-3.927223 -0.01393,-0.842343 0.739945,1.035783 1.497497,1.434019 0.846048,0.444802 1.776193,-0.838171 3.096232,-1.488924 0.373451,-0.184177 0.852539,-0.395689 0.820106,-0.552759 -0.154987,-0.757551 -1.733798,0.934315 -3.143725,0.991304 -0.643802,0.02594 -0.882652,-0.126253 -1.131231,-0.366497 -0.751529,-0.726278 0.07668,-0.120232 1.193781,-0.322249 0.496694,-0.08989 0.663495,-0.172593 1.190539,-0.385495 0.527042,-0.213134 1.129377,-0.528201 1.725456,-0.690136 0.415147,-0.1128188 0.380861,-0.4246462 0.219159,-0.5184718 -0.0929,-0.053972 -0.230742,-0.048879 -0.340089,0.1399204 -0.25576,0.4424844 -1.45904,0.6982454 -1.834341,0.8129214 -0.482099,0.147566 -1.015397,0.285414 -1.723836,0.256455 -1.076326,-0.04356 -0.825431,-0.537006 -1.595493,-0.9785627 -0.225873,-0.1292717 -0.164715,-0.4693574 0.135061,-0.7693661 0.157071,-0.1575344 0.587972,-0.246031 0.801337,-0.603726 0.03012,-0.05004 0.305338,-0.3380023 0.521252,-0.4871956 0.0746,-0.051666 0.08109,-1.3659103 -0.5933,-1.3930152 -0.572913,-0.023171 -0.735775,0.4209393 -0.711681,0.8634239 0.02387,0.4422524 0.258307,0.8071291 0.414452,0.805507 0.300704,-0.00294 0.01922,0.3289679 -0.145492,0.3824829 -0.250201,0.081554 -0.593069,-0.9848174 -0.553686,-1.4968025 0.04123,-0.5332983 0.318774,-1.4775728 0.993852,-1.4592717 0.607895,0.016454 1.048295,0.7786343 1.026055,2.0928825 -0.0038,0.2228635 0.985512,-0.1063335 1.315869,0.2423239 0.23607,0.2497365 -0.808981,-2.3287195 1.517884,-2.5061771 0.613224,0.1172299 1.201889,0.3213234 1.446762,1.730787 -0.09057,0.1466379 0.152442,1.1298409 -0.226107,1.2466002 -0.461713,0.1424744 -0.746896,-0.020617 -0.479784,-0.4605535 0.182787,-0.4417896 0.0044,-1.5653759 -0.930375,-1.4977297 -0.934545,0.067422 -0.810604,1.7259208 -0.554611,1.7588176 0.256225,0.032659 0.901649,0.4906721 1.352009,0.5784737 1.478733,0.28773 0.392214,1.1351698 0.584033,2.1614554 0.217074,1.158799 0.979953,0.852768 1.666152,3.921199 0.143171,0.186957 0.711449,0.363717 1.265135,2.721164 0.497852,2.121145 -0.20711,3.663586 0.990376,3.537096 0.269662,-0.02849 0.663727,-0.104026 0.835161,-0.704965 0.448276,-1.570935 -0.224717,-3.442574 -0.903502,-4.705624 -0.395688,-0.73647 -0.767977,-1.238031 -0.964893,-1.410159 0.778402,0.460091 1.773411,1.929326 2.002994,3.020478 0.30163,1.432629 0.516849,2.039366 0.0607,3.554701 0.263406,0.131594 0.918793,0.410051 0.918793,0.72257 -0.682492,-0.561098 -2.772362,-0.660714 -2.825876,0.68087 -0.356538,0.0071 -0.625967,0.03614 -0.855318,0.308582 -0.840024,0.996864 -0.06022,2.998469 -0.14526,4.072247 -0.07483,0.944739 -0.336844,1.880905 -0.484648,2.829814 -0.500169,-0.01899 -0.451289,-0.385031 -0.290974,-0.898637 0.141546,-0.45291 0.369972,-1.020726 0.384799,-1.565143 0.01362,-0.492757 -0.04031,-0.800875 -0.164482,-0.877324 -0.12418,-0.07645 -0.319008,0.07877 -0.587741,0.511752 -0.57384,0.923889 -1.816502,1.330234 -2.977155,1.47549 -1.160653,0.145724 -2.239528,0.03035 -2.810818,-0.609517 -0.195297,-0.218926 -0.5194,0.05978 -0.557856,0.117694 -0.05143,0.07784 0.189041,0.228889 0.370437,0.562024 0.265027,0.486039 0.516849,1.223436 -0.110746,1.560049 0.0084,-1.710864 -0.533297,-1.810943 -1.086982,-2.856689 l 0,0 z m -0.414685,-0.04518 c 0.415842,0.654691 1.881601,3.4113 -0.687589,3.768763 -0.859254,0.12 -2.2425377,-0.499475 -3.5829658,-0.827515 C 6.2419382,29.458061 5.0189666,29.283383 4.3346222,29.091099 3.9224867,28.975727 3.7503567,28.827695 3.7144494,28.65487 3.6192298,28.197328 4.2148493,27.555841 4.2449663,27.014202 4.275086,26.472101 4.0473549,26.190626 3.8608629,25.748605 3.6739065,25.305657 3.6252563,24.97391 3.7746814,24.783943 3.8909826,24.636376 4.1272795,24.574516 4.511615,24.612045 c 0.4874279,0.04795 1.0758632,-0.05167 1.3920883,-0.244871 0.5326033,-0.324799 0.7830362,-0.990379 0.543492,-1.792642 0,0.785119 -0.2573825,1.08235 -0.9025755,1.441201 -0.6081263,0.338466 -1.5468427,0.06463 -1.9782064,0.439242 -0.5191668,0.450129 0.1853328,1.613099 0.1276465,2.466792 -0.044251,0.656082 -0.7288247,1.394869 -0.4237192,2.052804 0.3071905,0.661873 1.7391265,0.733921 3.2324529,1.046209 2.1225351,0.444337 3.3598707,1.216717 4.3405184,1.253321 1.430545,0.05306 1.649703,-1.415256 3.895948,-1.435179 0.654923,-0.03428 1.295945,-0.05466 1.935811,-0.06277 0.725582,-0.0089 1.450004,-0.0033 2.193888,0.01486 1.494717,0.03567 0.980647,0.815699 1.950639,1.314479 0.818248,0.420244 2.289335,0.254372 2.64147,-0.08154 0.476307,-0.454301 1.754879,-1.547075 2.7346,-2.040757 1.221582,-0.615771 4.089159,-1.674954 2.007165,-2.966498 -0.485113,-0.301401 -1.632327,-0.619478 -1.728702,-2.821708 -0.434376,0.385958 -0.384103,2.437834 0.827979,2.845106 1.354095,0.454763 2.19968,1.216252 -0.317383,2.076897 -1.666384,0.570132 -1.949712,0.745737 -3.269057,1.843838 -1.334866,1.111308 -3.315854,0.670214 -2.969975,-1.669625 0.180237,-1.219033 0.284025,-2.22609 -0.01946,-3.285968 -0.148032,-0.517545 -0.221707,-1.181503 -0.120698,-1.646923 0.196916,-0.905356 0.687124,-1.178259 1.16737,-0.30858 0.301631,0.545344 0.407041,1.183124 1.486609,1.23525 1.695804,0.08109 2.031954,-1.638814 2.573824,-1.717119 0.361632,-0.05259 0.722802,-1.07563 0.447811,-2.730661 -0.294911,-1.772254 -1.337646,-4.570099 -2.674828,-5.989061 -1.11154,-1.179418 -1.811638,-2.213349 -2.25227,-3.689068 C 20.983851,8.9191836 20.777204,7.7121961 20.853424,6.5584944 20.952349,5.0635446 20.123208,2.9834053 18.8034,2.0046104 17.977275,1.3918515 16.68156,1.0638107 15.508861,1.0767843 c -0.657704,0.00712 -1.276719,0.1030985 -1.7521,0.3614004 -1.957588,1.0626574 -2.230723,2.5805408 -2.201533,4.3129484 0.02733,1.6274625 0.0827,3.4845076 0.267806,5.2509689 -0.218926,0.811067 -1.358496,2.348875 -2.0882477,3.284578 -0.9811109,0.969296 -1.4766479,2.842326 -2.1114155,4.478824 -0.3384656,0.872458 -0.9090626,1.266525 -0.9570178,2.388257 -0.013465,0.313678 -0.00248,1.125209 0.2972288,0.893077 1.1479116,-0.88798 2.5840175,1.350156 4.7531182,4.764468 l 0,0 z M 17.672401,3.3544922 c -0.06185,0.18487 -0.316228,0.338928 -0.15475,0.4681996 0.161705,0.1295039 0.254372,-0.1809323 0.579633,-0.2972304 0.08386,-0.029888 0.474918,0.012538 0.546734,-0.1732862 C 18.67576,3.271086 18.4427,3.1786568 18.303699,3.0459103 18.164924,2.9134037 18.028942,2.795479 17.898513,2.8038185 17.56167,2.8255961 17.727079,3.1907032 17.672407,3.3544922 l 0,0 z m 1.99419,6.7477708 c 0.121161,-0.1269504 0.183482,0.219621 0.509205,0.425109 0.258308,0.163094 0.509436,0.04239 0.574766,0.372289 0.04656,0.236765 -0.101241,0.493452 -0.299545,0.460092 -0.345417,-0.05792 -1.142584,-0.881262 -0.784426,-1.25749 l 0,0 z M 14.284498,8.0200386 c -0.53654,-0.040073 -0.573376,0.3477319 -0.395687,0.3414773 0.181163,-0.0065 0.06996,-0.3069599 0.395687,-0.3414773 l 0,0 z M 13.363853,7.0289651 c 0.06347,-0.01393 0.153602,0.094292 0.125788,0.2457988 -0.03893,0.2103544 -0.02201,0.3421737 0.123716,0.3426365 0.0241,0 0.05004,-0.00434 0.05907,-0.059079 0.06996,-0.4190867 -0.1478,-0.7265092 -0.236763,-0.7494445 -0.205026,-0.052362 -0.180005,0.2432512 -0.07182,0.2200839 l 0,0 z m 3.906836,-0.1772254 c 0.136221,0.040537 0.267112,0.2763802 0.295607,0.5309812 0.0028,0.023635 0.178152,-0.036605 0.179542,-0.092202 0.01084,-0.4098185 -0.338929,-0.6025651 -0.430438,-0.5939935 -0.210584,0.018527 -0.151281,0.1232508 -0.04472,0.1552158 l 0,0 z m -2.002764,1.2181069 c 0.488124,-0.2261078 0.659094,0.1244116 0.490209,0.1807002 -0.171666,0.057687 -0.173287,-0.2629421 -0.490209,-0.1807002 l 0,0 z M 9.3738486,16.385078 c -0.2307416,-0.02803 0.067194,-0.201086 0.1934417,-0.419317 0.138775,-0.240007 0.11189,-0.539553 0.257615,-0.495305 0.145724,0.04402 0.06463,0.211975 -0.03522,0.486965 -0.08501,0.234216 -0.33082,0.43785 -0.4158418,0.427657 l 0,0 z"
       id="path9" />
    <text
       xml:space="preserve"
       style="font-size:40px;font-style:normal;font-weight:normal;line-height:125%;letter-spacing:0px;word-spacing:0px;fill:#000000;fill-opacity:1;stroke:none;font-family:Nokia Sans;-inkscape-font-specification:Nokia Sans;font-stretch:normal;font-variant:normal"
       x="12.323847"
       y="19.051029"
       id="text3069"
       sodipodi:linespacing="125%"><tspan
         sodipodi:role="line"
         id="tspan3071"
         x="12.323847"
         y="19.051029" /></text>
    <text
       xml:space="preserve"
       style="font-size:8.78833485px;font-style:normal;font-variant:normal;font-weight:normal;font-stretch:normal;line-height:125%;letter-spacing:0px;word-spacing:0px;fill:#000000;fill-opacity:1;stroke:none;font-family:Nokia Sans;-inkscape-font-specification:Nokia Sans"
       x="10.116983"
       y="23.172905"
       id="text3100"
       sodipodi:linespacing="125%"
       transform="scale(1.0293694,0.97146856)"><tspan
         sodipodi:role="line"
         id="tspan3102"
         x="10.116983"
         y="23.172905"
         style="font-weight:bold;-inkscape-font-specification:Nokia Sans Bold">64</tspan></text>
  </g>
</svg>
