<?xml version="1.0" encoding="UTF-8" standalone="no"?>
<!-- Created with Inkscape (http://www.inkscape.org/) -->

<svg
   xmlns:dc="http://purl.org/dc/elements/1.1/"
   xmlns:cc="http://creativecommons.org/ns#"
   xmlns:rdf="http://www.w3.org/1999/02/22-rdf-syntax-ns#"
   xmlns:svg="http://www.w3.org/2000/svg"
   xmlns="http://www.w3.org/2000/svg"
   xmlns:sodipodi="http://sodipodi.sourceforge.net/DTD/sodipodi-0.dtd"
   xmlns:inkscape="http://www.inkscape.org/namespaces/inkscape"
   width="32px"
   height="32px"
   id="svg4135"
   version="1.1"
   inkscape:version="0.48.4 r9939"
   sodipodi:docname="Rzx50.svg">
  <defs
     id="defs4137" />
  <sodipodi:namedview
     id="base"
     pagecolor="#ffffff"
     bordercolor="#666666"
     borderopacity="1.0"
     inkscape:pageopacity="0.0"
     inkscape:pageshadow="2"
     inkscape:zoom="5.598901"
     inkscape:cx="41.736554"
     inkscape:cy="-13.997539"
     inkscape:current-layer="layer1"
     showgrid="true"
     inkscape:grid-bbox="true"
     inkscape:document-units="px"
     inkscape:window-width="1280"
     inkscape:window-height="881"
     inkscape:window-x="-3"
     inkscape:window-y="-6"
     inkscape:window-maximized="1">
    <inkscape:grid
       type="xygrid"
       id="grid4749"
       empspacing="5"
       visible="true"
       enabled="true"
       snapvisiblegridlinesonly="true" />
  </sodipodi:namedview>
  <metadata
     id="metadata4140">
    <rdf:RDF>
      <cc:Work
         rdf:about="">
        <dc:format>image/svg+xml</dc:format>
        <dc:type
           rdf:resource="http://purl.org/dc/dcmitype/StillImage" />
        <dc:title></dc:title>
      </cc:Work>
    </rdf:RDF>
  </metadata>
  <g
     id="layer1"
     inkscape:label="Layer 1"
     inkscape:groupmode="layer">
    <path
       id="path3061-5"
       d="m 12.530933,2.8749991 c 0.217845,0.1810895 0.416178,0.3850228 0.611766,0.5894782 -0.04707,0.049193 -0.140859,0.147902 -0.187768,0.1966923 5.069129,5.0732302 10.140949,10.1437774 15.213264,15.2138234 0.07539,0.09264 0.158864,-0.121557 0.252603,-0.129637 0.582522,0.556402 1.127224,1.165083 1.499737,1.885317 0.137431,0.248701 0.272072,0.49963 0.403381,0.752232 -0.343292,0.203637 0.168307,0.506591 -0.0011,0.776157 -0.539142,0.928053 -1.246306,1.743162 -1.906738,2.585529 -0.455124,0.526895 -0.884932,1.077439 -1.38707,1.562333 -0.561112,0.657929 -1.265782,1.182315 -1.895884,1.775152 -0.979794,0.777828 -1.912299,1.626318 -2.976664,2.290086 -0.06174,0.03618 -0.125444,0.06929 -0.192509,0.09514 -0.305455,-0.07122 -0.59311,-0.205862 -0.859894,-0.368606 C 20.500087,29.767369 19.941199,29.35592 19.433219,28.893011 13.918009,23.372852 8.3953789,17.860121 2.8826486,12.337491 2.3137434,11.682347 1.8402539,10.940695 1.5000246,10.142557 1.4649767,10.073556 1.4747063,9.993723 1.4752637,9.9191687 1.6811306,9.5580745 1.9370643,9.2298079 2.1832663,8.8962517 3.1889333,7.5656563 4.2702672,6.2923642 5.411418,5.077776 6.2760524,4.2682446 7.1757207,3.4965246 8.1107247,2.7684955 8.6301109,2.367619 9.1503312,1.9608986 9.7211835,1.6354111 9.9754386,1.4423335 10.289812,1.885786 10.50374,1.5600233 c 0.715512,0.3677714 1.446603,0.7450024 2.027193,1.3150163 z"
       inkscape:connector-curvature="0"
       style="fill:#303030;fill-opacity:0;stroke:#000000;stroke-width:1;stroke-miterlimit:4;stroke-opacity:1;stroke-dasharray:none" />
    <rect
       style="fill:#000000;fill-opacity:1;stroke:#000000;stroke-width:1.03277445;stroke-miterlimit:4;stroke-opacity:1;stroke-dasharray:none"
       id="rect4660"
       width="13.543815"
       height="9.2498236"
       x="15.602378"
       y="-4.6824412"
       transform="matrix(0.70710678,0.70710678,-0.70710678,0.70710678,0,0)" />
    <path
       sodipodi:type="arc"
       style="fill:#303030;fill-opacity:0;stroke:#000000;stroke-width:0.26926094;stroke-miterlimit:4;stroke-opacity:1;stroke-dasharray:none"
       id="path4662"
       sodipodi:cx="4.7675929"
       sodipodi:cy="13.718965"
       sodipodi:rx="1.9891282"
       sodipodi:ry="1.9891282"
       d="m 6.7567211,13.718965 a 1.9891282,1.9891282 0 1 1 -3.9782564,0 1.9891282,1.9891282 0 1 1 3.9782564,0 z"
       transform="matrix(0.78783073,0.78783073,-0.78783073,0.78783073,16.81904,-7.692079)" />
    <path
       style="fill:none;stroke:#000000;stroke-width:1px;stroke-linecap:butt;stroke-linejoin:miter;stroke-opacity:1"
       d="m 21.618659,25.099422 2.058226,1.582762"
       id="path4684"
       inkscape:connector-curvature="0" />
    <path
       style="fill:none;stroke:#000000;stroke-width:1px;stroke-linecap:butt;stroke-linejoin:miter;stroke-opacity:1"
       d="m 20.066375,26.125326 2.058226,1.582762"
       id="path4684-9"
       inkscape:connector-curvature="0" />
    <path
       sodipodi:type="arc"
       style="fill:#303030;fill-opacity:0;stroke:#000000;stroke-width:0.26926094;stroke-miterlimit:4;stroke-opacity:1;stroke-dasharray:none"
       id="path4662-7"
       sodipodi:cx="4.7675929"
       sodipodi:cy="13.718965"
       sodipodi:rx="1.9891282"
       sodipodi:ry="1.9891282"
       d="m 6.7567211,13.718965 a 1.9891282,1.9891282 0 1 1 -3.9782564,0 1.9891282,1.9891282 0 1 1 3.9782564,0 z"
       transform="matrix(0.78783073,0.78783073,-0.78783073,0.78783073,32.201523,7.6904041)" />
    <path
       sodipodi:type="arc"
       style="fill:#000000;fill-opacity:1;stroke:#000000;stroke-width:0.30000001;stroke-miterlimit:4;stroke-opacity:1;stroke-dasharray:none"
       id="path4747"
       sodipodi:cx="8.240674"
       sodipodi:cy="3.6786034"
       sodipodi:rx="0.72618967"
       sodipodi:ry="0.72618967"
       d="m 8.9668637,3.6786034 a 0.72618967,0.72618967 0 1 1 -1.4523794,0 0.72618967,0.72618967 0 1 1 1.4523794,0 z"
       transform="matrix(0.70710678,0.70710678,-0.70710678,0.70710678,20.575753,12.49209)" />
    <path
       sodipodi:type="arc"
       style="fill:#000000;fill-opacity:1;stroke:#000000;stroke-width:0.30000001;stroke-miterlimit:4;stroke-opacity:1;stroke-dasharray:none"
       id="path4747-9"
       sodipodi:cx="8.240674"
       sodipodi:cy="3.6786034"
       sodipodi:rx="0.72618967"
       sodipodi:ry="0.72618967"
       d="m 8.9668637,3.6786034 a 0.72618967,0.72618967 0 1 1 -1.4523794,0 0.72618967,0.72618967 0 1 1 1.4523794,0 z"
       transform="matrix(0.70710678,0.70710678,-0.70710678,0.70710678,23.310842,15.227179)" />
    <path
       sodipodi:type="arc"
       style="fill:#000000;fill-opacity:1;stroke:#000000;stroke-width:0.30000001;stroke-miterlimit:4;stroke-opacity:1;stroke-dasharray:none"
       id="path4747-92"
       sodipodi:cx="8.240674"
       sodipodi:cy="3.6786034"
       sodipodi:rx="0.72618967"
       sodipodi:ry="0.72618967"
       d="m 8.9668637,3.6786034 a 0.72618967,0.72618967 0 1 1 -1.4523794,0 0.72618967,0.72618967 0 1 1 1.4523794,0 z"
       transform="matrix(0.70710678,0.70710678,-0.70710678,0.70710678,23.395282,12.513716)" />
    <path
       sodipodi:type="arc"
       style="fill:#000000;fill-opacity:1;stroke:#000000;stroke-width:0.30000001;stroke-miterlimit:4;stroke-opacity:1;stroke-dasharray:none"
       id="path4747-6"
       sodipodi:cx="8.240674"
       sodipodi:cy="3.6786034"
       sodipodi:rx="0.72618967"
       sodipodi:ry="0.72618967"
       d="m 8.9668637,3.6786034 a 0.72618967,0.72618967 0 1 1 -1.4523794,0 0.72618967,0.72618967 0 1 1 1.4523794,0 z"
       transform="matrix(0.70710678,0.70710678,-0.70710678,0.70710678,20.644636,15.264362)" />
    <path
       style="fill:none;stroke:#000000;stroke-width:1.53794944px;stroke-linecap:butt;stroke-linejoin:miter;stroke-opacity:1"
       d="M 11.593514,4.9694228 7.9498949,8.6130415"
       id="path4814"
       inkscape:connector-curvature="0" />
    <path
       style="fill:none;stroke:#000000;stroke-width:1.53794944px;stroke-linecap:butt;stroke-linejoin:miter;stroke-opacity:1"
       d="M 7.9590898,5.0483561 11.602708,8.6919748"
       id="path4814-4"
       inkscape:connector-curvature="0" />
    <g
       transform="matrix(0.70710678,0.70710678,-0.70710678,0.70710678,35.461964,21.89611)"
       id="g7022"
       style="fill:#ffffcc;fill-opacity:1">
      <path
         inkscape:connector-curvature="0"
         d="m -16.424712,11.066221 c -0.707398,-0.885955 -0.742036,-1.9646173 -0.742036,-1.9646173 -0.04488,-0.035613 -0.08782,-0.085378 -0.154165,-0.1287954 -0.01561,-0.010245 -0.02634,-0.01854 -0.04146,-0.027809 -0.05366,-0.037079 -0.117575,-0.072203 -0.179046,-0.096596 -0.197095,-0.080498 -0.37175,-0.1068415 -0.590799,-0.1161112 -0.316622,-0.012196 -0.545917,0.1161112 -0.752771,0.2761299 -0.03513,0.027809 -0.06977,0.060004 -0.101962,0.092694 -0.07464,0.075133 -0.102451,0.1112316 -0.165873,0.1785566 -0.01268,0.011714 -0.01268,0.017072 -0.02342,0.027807 0,0 -0.267835,0.9162034 -0.762526,1.5762794 -0.494204,0.660077 -1.137205,0.914252 -1.137205,1.085979 0,0.265397 0.01268,0.390289 0.114159,0.627877 0.02732,0.06684 0.06977,0.133675 0.108305,0.191243 0.07415,0.106841 0.08928,0.105377 0.135626,0.16392 0.04001,0.05074 0.101963,0.09709 0.156115,0.13709 0.04147,0.03219 0.08928,0.06342 0.136113,0.08831 0.0069,0.0029 0.01464,0.0073 0.02196,0.01171 0.07562,0.03854 0.161482,0.07562 0.249297,0.08977 l 0.270276,0.02976 h 0.08489 c 0.285399,-0.01219 0.72984,-0.143432 0.982552,-0.213196 0.06635,-0.01854 0.137089,-0.03415 0.20783,-0.05073 l 0.459565,-0.05708 c 0.225392,-0.01366 0.644953,0.07708 0.873759,0.143432 0.259055,0.07708 0.57031,0.163433 0.839121,0.177581 h 0.140505 c 0.261981,-0.01414 0.505912,-0.108793 0.703008,-0.271739 0.254664,-0.208805 0.41517,-0.464444 0.463956,-0.801068 0.06489,-0.453223 -0.588361,-0.284423 -1.295759,-1.170379 z"
         id="path7024"
         style="fill:#ffffcc;fill-opacity:1" />
      <path
         inkscape:connector-curvature="0"
         d="m -14.550836,8.4034747 c 0.03512,-0.047324 0.06294,-0.098548 0.07952,-0.1527005 0.02976,-0.097085 0.03025,-0.1975841 0.0039,-0.2897898 -0.02439,-0.092206 -0.0722,-0.1775814 -0.15953,-0.2463699 -0.06342,0.091718 -0.09757,0.1688001 -0.126356,0.2390524 -0.03123,0.070252 -0.05075,0.1322101 -0.06928,0.1902658 -0.01366,0.042441 -0.02342,0.083424 -0.03366,0.125868 -0.363457,-0.00198 -0.784968,0.4244391 -0.960598,0.8293641 -0.202463,0.4673711 -0.04976,0.9830412 0.340526,1.1518412 0.39029,0.1688 0.870345,-0.07318 1.071832,-0.5405507 0.17563,-0.40395 0.123429,-1.0347543 -0.146359,-1.3069806 z"
         id="path7026"
         style="fill:#ffffcc;fill-opacity:1" />
      <path
         inkscape:connector-curvature="0"
         d="m -17.039905,8.4317709 c 0.514207,0.1097684 1.037681,-0.3005225 1.168916,-0.9162036 0.109769,-0.5137178 -0.08879,-1.2308742 -0.456151,-1.5192002 0.01317,-0.026833 0.03025,-0.052201 0.03854,-0.080498 0.02976,-0.097084 0.03025,-0.1975838 0.0039,-0.2897896 -0.02439,-0.091718 -0.0722,-0.1775815 -0.160019,-0.245882 -0.06342,0.091718 -0.09708,0.1687999 -0.125868,0.239052 -0.03122,0.070252 -0.05073,0.1322104 -0.06928,0.1902659 -0.0063,0.02049 -0.01122,0.040004 -0.01609,0.05952 -0.482982,-0.011709 -0.953281,0.6698335 -1.07671,1.2489248 -0.131234,0.615681 0.178557,1.2040418 0.692763,1.3138109 z"
         id="path7028"
         style="fill:#ffffcc;fill-opacity:1" />
      <path
         inkscape:connector-curvature="0"
         d="m -19.321633,8.4634817 c 0.558115,-0.044882 0.96743,-0.6225108 0.914253,-1.2908813 -0.05074,-0.6371466 -0.5908,-1.4230911 -1.125008,-1.4582171 -0.0049,-0.018539 -0.0098,-0.037078 -0.01561,-0.056592 -0.01805,-0.058543 -0.03756,-0.1205018 -0.06879,-0.1902659 -0.02879,-0.070252 -0.06245,-0.1473341 -0.126357,-0.2390521 -0.08782,0.068788 -0.135626,0.1541642 -0.160018,0.24637 -0.02586,0.091718 -0.02537,0.1922173 0.0044,0.2893018 0.0049,0.015124 0.01512,0.029272 0.02098,0.044395 -0.388338,0.2556393 -0.594703,0.970844 -0.550795,1.5245663 0.05317,0.6688583 0.548843,1.1742825 1.106957,1.130375 z"
         id="path7030"
         style="fill:#ffffcc;fill-opacity:1" />
      <path
         inkscape:connector-curvature="0"
         d="m -20.474936,9.0284245 c -0.136113,-0.5385986 -0.708862,-1.1333016 -1.173795,-1.1011024 -0.0049,-0.01854 -0.0093,-0.036588 -0.01561,-0.055127 -0.01805,-0.058054 -0.03708,-0.1205012 -0.06831,-0.1907535 -0.02878,-0.069764 -0.06293,-0.146846 -0.125867,-0.2390516 -0.08782,0.069276 -0.135626,0.1541635 -0.160019,0.2463699 -0.02635,0.092206 -0.02537,0.1931927 0.0039,0.2902774 0.01025,0.034153 0.02927,0.066348 0.04733,0.098548 -0.285399,0.2878383 -0.353211,0.9235212 -0.236124,1.3874767 0.144894,0.572262 0.648855,0.938159 1.12696,0.817169 0.476639,-0.12099 0.746427,-0.682519 0.601532,-1.2538041 z"
         id="path7032"
         style="fill:#ffffcc;fill-opacity:1" />
    </g>
  </g>
</svg>
